<mxfile host="app.diagrams.net" modified="2023-02-01T06:35:49.420Z" agent="5.0 (Windows NT 10.0; Win64; x64) AppleWebKit/537.36 (KHTML, like Gecko) Chrome/109.0.0.0 Safari/537.36" etag="O7R5uJQY_7Hg5RDyl_tk" version="20.8.14" type="github">
  <diagram id="kgpKYQtTHZ0yAKxKKP6v" name="Page-1">
    <mxGraphModel dx="1434" dy="764" grid="1" gridSize="10" guides="1" tooltips="1" connect="1" arrows="1" fold="1" page="1" pageScale="1" pageWidth="850" pageHeight="1100" math="0" shadow="0">
      <root>
        <mxCell id="0" />
        <mxCell id="1" parent="0" />
        <mxCell id="3nuBFxr9cyL0pnOWT2aG-1" value=":sales-out-api" style="shape=umlLifeline;perimeter=lifelinePerimeter;container=1;collapsible=0;recursiveResize=0;rounded=0;shadow=0;strokeWidth=1;" parent="1" vertex="1">
          <mxGeometry x="120" y="80" width="100" height="500" as="geometry" />
        </mxCell>
        <mxCell id="3nuBFxr9cyL0pnOWT2aG-2" value="" style="points=[];perimeter=orthogonalPerimeter;rounded=0;shadow=0;strokeWidth=1;" parent="3nuBFxr9cyL0pnOWT2aG-1" vertex="1">
          <mxGeometry x="45" y="70" width="10" height="420" as="geometry" />
        </mxCell>
        <mxCell id="3nuBFxr9cyL0pnOWT2aG-3" value="确定出库" style="verticalAlign=bottom;startArrow=oval;endArrow=block;startSize=8;shadow=0;strokeWidth=1;" parent="3nuBFxr9cyL0pnOWT2aG-1" target="3nuBFxr9cyL0pnOWT2aG-2" edge="1">
          <mxGeometry relative="1" as="geometry">
            <mxPoint x="-15" y="70" as="sourcePoint" />
          </mxGeometry>
        </mxCell>
        <mxCell id="3nuBFxr9cyL0pnOWT2aG-4" value="" style="points=[];perimeter=orthogonalPerimeter;rounded=0;shadow=0;strokeWidth=1;" parent="3nuBFxr9cyL0pnOWT2aG-1" vertex="1">
          <mxGeometry x="50" y="120" width="10" height="80" as="geometry" />
        </mxCell>
        <mxCell id="3nuBFxr9cyL0pnOWT2aG-5" value=":management-api" style="shape=umlLifeline;perimeter=lifelinePerimeter;container=1;collapsible=0;recursiveResize=0;rounded=0;shadow=0;strokeWidth=1;" parent="1" vertex="1">
          <mxGeometry x="313" y="80" width="100" height="520" as="geometry" />
        </mxCell>
        <mxCell id="3nuBFxr9cyL0pnOWT2aG-6" value="" style="points=[];perimeter=orthogonalPerimeter;rounded=0;shadow=0;strokeWidth=1;" parent="3nuBFxr9cyL0pnOWT2aG-5" vertex="1">
          <mxGeometry x="45" y="80" width="10" height="410" as="geometry" />
        </mxCell>
        <mxCell id="3nuBFxr9cyL0pnOWT2aG-8" value="调用销售接口confirmSaleOutStock" style="verticalAlign=bottom;endArrow=block;entryX=0;entryY=0;shadow=0;strokeWidth=1;" parent="1" source="3nuBFxr9cyL0pnOWT2aG-2" target="3nuBFxr9cyL0pnOWT2aG-6" edge="1">
          <mxGeometry relative="1" as="geometry">
            <mxPoint x="275" y="160" as="sourcePoint" />
            <mxPoint as="offset" />
          </mxGeometry>
        </mxCell>
        <mxCell id="QIZ9XhLgl4uB9v0lIU0x-1" value=":sale-platform" style="shape=umlLifeline;perimeter=lifelinePerimeter;whiteSpace=wrap;html=1;container=1;collapsible=0;recursiveResize=0;outlineConnect=0;" vertex="1" parent="1">
          <mxGeometry x="456" y="80" width="127" height="520" as="geometry" />
        </mxCell>
        <mxCell id="QIZ9XhLgl4uB9v0lIU0x-3" value="channelId=132930" style="text;html=1;strokeColor=none;fillColor=none;align=center;verticalAlign=middle;whiteSpace=wrap;rounded=0;" vertex="1" parent="1">
          <mxGeometry x="280" y="190" width="60" height="30" as="geometry" />
        </mxCell>
        <mxCell id="QIZ9XhLgl4uB9v0lIU0x-2" value="opt" style="shape=umlFrame;whiteSpace=wrap;html=1;" vertex="1" parent="1">
          <mxGeometry x="280" y="164" width="260" height="76" as="geometry" />
        </mxCell>
        <mxCell id="QIZ9XhLgl4uB9v0lIU0x-4" value="" style="html=1;points=[];perimeter=orthogonalPerimeter;" vertex="1" parent="1">
          <mxGeometry x="515" y="165" width="10" height="405" as="geometry" />
        </mxCell>
        <mxCell id="QIZ9XhLgl4uB9v0lIU0x-6" value="发货（orderShip）" style="html=1;verticalAlign=bottom;endArrow=block;rounded=0;" edge="1" parent="1" target="QIZ9XhLgl4uB9v0lIU0x-4">
          <mxGeometry width="80" relative="1" as="geometry">
            <mxPoint x="370" y="186" as="sourcePoint" />
            <mxPoint x="510" y="186" as="targetPoint" />
          </mxGeometry>
        </mxCell>
        <mxCell id="QIZ9XhLgl4uB9v0lIU0x-7" value="return" style="html=1;verticalAlign=bottom;endArrow=open;dashed=1;endSize=8;rounded=0;entryX=0.346;entryY=0.737;entryDx=0;entryDy=0;entryPerimeter=0;" edge="1" parent="1" target="QIZ9XhLgl4uB9v0lIU0x-2">
          <mxGeometry relative="1" as="geometry">
            <mxPoint x="510" y="220" as="sourcePoint" />
            <mxPoint x="430" y="220" as="targetPoint" />
          </mxGeometry>
        </mxCell>
        <mxCell id="QIZ9XhLgl4uB9v0lIU0x-8" value="opt" style="shape=umlFrame;whiteSpace=wrap;html=1;" vertex="1" parent="1">
          <mxGeometry x="280" y="264" width="260" height="76" as="geometry" />
        </mxCell>
        <mxCell id="QIZ9XhLgl4uB9v0lIU0x-9" value="" style="html=1;points=[];perimeter=orthogonalPerimeter;" vertex="1" parent="1">
          <mxGeometry x="363" y="296" width="10" height="40" as="geometry" />
        </mxCell>
        <mxCell id="QIZ9XhLgl4uB9v0lIU0x-10" value="查询是否已支付" style="edgeStyle=orthogonalEdgeStyle;html=1;align=left;spacingLeft=2;endArrow=block;rounded=0;entryX=1;entryY=0;" edge="1" target="QIZ9XhLgl4uB9v0lIU0x-9" parent="1">
          <mxGeometry relative="1" as="geometry">
            <mxPoint x="368" y="276" as="sourcePoint" />
            <Array as="points">
              <mxPoint x="398" y="276" />
            </Array>
          </mxGeometry>
        </mxCell>
        <mxCell id="QIZ9XhLgl4uB9v0lIU0x-11" value="&lt;pre style=&quot;background-color: rgb(255, 255, 255); font-family: &amp;quot;JetBrains Mono&amp;quot;, monospace; font-size: 9.8pt;&quot;&gt;NB_CUSTOMER_AUCTION_PAYMENT&lt;/pre&gt;" style="text;html=1;strokeColor=none;fillColor=none;align=center;verticalAlign=middle;whiteSpace=wrap;rounded=0;" vertex="1" parent="1">
          <mxGeometry x="380" y="301" width="60" height="30" as="geometry" />
        </mxCell>
        <mxCell id="QIZ9XhLgl4uB9v0lIU0x-13" value="=62" style="text;html=1;strokeColor=none;fillColor=none;align=center;verticalAlign=middle;whiteSpace=wrap;rounded=0;" vertex="1" parent="1">
          <mxGeometry x="270" y="296" width="60" height="30" as="geometry" />
        </mxCell>
        <mxCell id="QIZ9XhLgl4uB9v0lIU0x-14" value="opt" style="shape=umlFrame;whiteSpace=wrap;html=1;" vertex="1" parent="1">
          <mxGeometry x="280" y="360" width="260" height="76" as="geometry" />
        </mxCell>
        <mxCell id="QIZ9XhLgl4uB9v0lIU0x-24" value="" style="html=1;points=[];perimeter=orthogonalPerimeter;" vertex="1" parent="1">
          <mxGeometry x="365" y="388" width="10" height="40" as="geometry" />
        </mxCell>
        <mxCell id="QIZ9XhLgl4uB9v0lIU0x-25" value="查询是付款单否已支付" style="edgeStyle=orthogonalEdgeStyle;html=1;align=left;spacingLeft=2;endArrow=block;rounded=0;entryX=1;entryY=0;" edge="1" target="QIZ9XhLgl4uB9v0lIU0x-24" parent="1">
          <mxGeometry relative="1" as="geometry">
            <mxPoint x="370" y="368" as="sourcePoint" />
            <Array as="points">
              <mxPoint x="400" y="368" />
            </Array>
          </mxGeometry>
        </mxCell>
        <mxCell id="QIZ9XhLgl4uB9v0lIU0x-26" value="=142440,65" style="text;html=1;strokeColor=none;fillColor=none;align=center;verticalAlign=middle;whiteSpace=wrap;rounded=0;" vertex="1" parent="1">
          <mxGeometry x="290" y="393" width="60" height="30" as="geometry" />
        </mxCell>
        <mxCell id="QIZ9XhLgl4uB9v0lIU0x-27" value=":third-notify" style="shape=umlLifeline;perimeter=lifelinePerimeter;whiteSpace=wrap;html=1;container=1;collapsible=0;recursiveResize=0;outlineConnect=0;" vertex="1" parent="1">
          <mxGeometry x="600" y="80" width="80" height="510" as="geometry" />
        </mxCell>
        <mxCell id="QIZ9XhLgl4uB9v0lIU0x-28" value="" style="html=1;points=[];perimeter=orthogonalPerimeter;" vertex="1" parent="QIZ9XhLgl4uB9v0lIU0x-27">
          <mxGeometry x="35" y="384" width="10" height="100" as="geometry" />
        </mxCell>
        <mxCell id="QIZ9XhLgl4uB9v0lIU0x-29" value="opt" style="shape=umlFrame;whiteSpace=wrap;html=1;" vertex="1" parent="1">
          <mxGeometry x="265" y="460" width="395" height="70" as="geometry" />
        </mxCell>
        <mxCell id="QIZ9XhLgl4uB9v0lIU0x-31" value="调用发货（deliver）" style="html=1;verticalAlign=bottom;endArrow=block;rounded=0;entryX=0.949;entryY=0.429;entryDx=0;entryDy=0;entryPerimeter=0;" edge="1" parent="1" target="QIZ9XhLgl4uB9v0lIU0x-29">
          <mxGeometry x="0.0005" width="80" relative="1" as="geometry">
            <mxPoint x="370" y="490" as="sourcePoint" />
            <mxPoint x="450" y="490" as="targetPoint" />
            <mxPoint as="offset" />
          </mxGeometry>
        </mxCell>
        <mxCell id="QIZ9XhLgl4uB9v0lIU0x-32" value="return" style="html=1;verticalAlign=bottom;endArrow=open;dashed=1;endSize=8;rounded=0;" edge="1" parent="1">
          <mxGeometry relative="1" as="geometry">
            <mxPoint x="630" y="520" as="sourcePoint" />
            <mxPoint x="370" y="520" as="targetPoint" />
          </mxGeometry>
        </mxCell>
        <mxCell id="QIZ9XhLgl4uB9v0lIU0x-33" value="return" style="html=1;verticalAlign=bottom;endArrow=open;dashed=1;endSize=8;rounded=0;" edge="1" parent="1" target="3nuBFxr9cyL0pnOWT2aG-1">
          <mxGeometry relative="1" as="geometry">
            <mxPoint x="360" y="560" as="sourcePoint" />
            <mxPoint x="280" y="560" as="targetPoint" />
          </mxGeometry>
        </mxCell>
        <mxCell id="QIZ9XhLgl4uB9v0lIU0x-34" value="=153084" style="text;html=1;strokeColor=none;fillColor=none;align=center;verticalAlign=middle;whiteSpace=wrap;rounded=0;" vertex="1" parent="1">
          <mxGeometry x="280" y="490" width="60" height="30" as="geometry" />
        </mxCell>
        <mxCell id="QIZ9XhLgl4uB9v0lIU0x-35" value="&lt;font style=&quot;font-size: 18px;&quot;&gt;&lt;b&gt;确认出库时序图&lt;/b&gt;&lt;/font&gt;" style="text;html=1;strokeColor=none;fillColor=none;align=center;verticalAlign=middle;whiteSpace=wrap;rounded=0;" vertex="1" parent="1">
          <mxGeometry x="173" y="50" width="140" height="20" as="geometry" />
        </mxCell>
      </root>
    </mxGraphModel>
  </diagram>
</mxfile>
